<svg width="508" height="500" viewBox="0 0 508 500" fill="none" xmlns="http://www.w3.org/2000/svg">
<path d="M150.352 378.738C195.235 461.64 290.492 497.228 290.492 497.228C290.492 497.228 312.98 398.405 268.097 315.504C223.215 232.602 127.958 197.015 127.958 197.015C127.958 197.015 105.47 295.837 150.352 378.738Z" fill="#29292B"/>
<path d="M181.202 351.464C262.233 400.019 293.441 496.463 293.441 496.463C293.441 496.463 193.271 514.183 112.239 465.628C31.2078 417.073 -1.14441e-05 320.63 -1.14441e-05 320.63C-1.14441e-05 320.63 100.17 302.909 181.202 351.464Z" fill="#EE383C"/>
<path d="M366.609 154.734C361.901 150.493 358.964 144.644 358.381 138.348C357.799 132.051 359.613 125.766 363.464 120.739C362.954 121.215 362.456 121.71 361.979 122.235C359.749 124.691 358.027 127.561 356.911 130.68C355.794 133.8 355.306 137.107 355.473 140.415C355.81 147.094 358.798 153.366 363.779 157.852C368.76 162.337 375.326 164.668 382.032 164.332C385.353 164.165 388.608 163.349 391.612 161.93C394.616 160.51 397.31 158.515 399.54 156.059C400.017 155.534 400.461 154.99 400.885 154.437C396.25 158.758 390.154 161.187 383.805 161.242C377.457 161.297 371.319 158.974 366.609 154.734Z" fill="#29292B"/>
<path d="M343.676 172.632C372.474 172.632 395.82 149.38 395.82 120.697C395.82 92.0148 372.474 68.763 343.676 68.763C314.878 68.763 291.532 92.0148 291.532 120.697C291.532 149.38 314.878 172.632 343.676 172.632Z" fill="#29292B"/>
<path d="M329.352 187.427L330.897 183.426L302.774 207.126L268.779 226.21C268.779 226.21 251.473 159.725 250.236 158.494C249 157.263 226.749 110.477 216.859 132.638C206.97 154.8 236.02 167.728 236.02 167.728C236.02 167.728 236.947 248.68 266.616 248.064C296.284 247.448 333.061 220.67 333.679 218.207C334.297 215.745 329.352 187.427 329.352 187.427Z" fill="#FFC8C8"/>
<path d="M337.387 173.884C354.455 173.884 368.292 160.103 368.292 143.104C368.292 126.104 354.455 112.324 337.387 112.324C320.319 112.324 306.483 126.104 306.483 143.104C306.483 160.103 320.319 173.884 337.387 173.884Z" fill="#FFC8C8"/>
<path d="M343.568 165.265C343.568 165.265 351.603 175.731 349.131 176.962C346.659 178.193 332.443 178.809 323.789 189.274C315.136 199.739 334.297 226.21 334.297 226.21L407.232 177.578L377.563 167.728C377.563 167.728 357.166 156.647 357.784 144.951L343.568 165.265Z" fill="#FFC8C8"/>
<path d="M442.014 500H359.664C354.999 466.03 352.842 434.899 352.842 434.899C352.842 434.899 351.638 466.213 348.437 500H242.637C257.634 399.955 328.733 291.468 328.733 291.468C328.733 291.468 329.352 276.689 331.207 274.224C333.063 271.768 320.699 271.152 315.132 252.685C311.738 241.412 314.789 234.035 317.69 230.005C318.686 228.553 319.911 227.271 321.318 226.209C321.318 226.209 322.555 213.287 321.318 211.438C321.159 211.197 322.38 210.348 324.637 209.057C326.518 207.975 329.118 206.584 332.227 204.986C350.042 195.785 384.525 179.508 396.337 173.963C398.929 172.739 400.434 172.04 400.434 172.04L421.45 179.425C438.136 184.962 438.136 220.056 438.136 220.056L437.191 221.488L411.97 259.537L397.341 281.618C401.052 284.074 393.637 299.469 393.637 299.469C393.637 299.469 404.204 314.589 412.798 337.668C417.657 350.513 420.971 363.886 422.67 377.508C423.753 386.336 423.966 395.249 423.306 404.118C421.015 433.775 431.197 469.818 442.014 500Z" fill="#29292B"/>
<path d="M421.746 183.053C421.061 182.67 420.3 182.44 419.516 182.379C418.733 182.319 417.945 182.43 417.209 182.704C416.473 182.978 415.806 183.409 415.254 183.967C414.703 184.525 414.28 185.195 414.016 185.932C412.154 191.03 410.268 201.655 410.94 223.748C412.176 264.378 412.795 292.08 412.795 292.08V353.64C412.795 353.64 385.599 412.738 400.433 412.738C415.267 412.738 425.774 365.952 425.774 365.952C425.774 365.952 439.372 295.158 435.046 282.846C435.046 282.846 447.246 197.79 421.746 183.053Z" fill="#FFC8C8"/>
<path d="M333.76 133.803C348.409 133.803 360.284 125.739 360.284 115.792C360.284 105.844 348.409 97.7797 333.76 97.7797C319.111 97.7797 307.236 105.844 307.236 115.792C307.236 125.739 319.111 133.803 333.76 133.803Z" fill="#29292B"/>
<path d="M375.881 101.663C389.864 101.663 401.2 90.3732 401.2 76.4465C401.2 62.5197 389.864 51.2299 375.881 51.2299C361.898 51.2299 350.563 62.5197 350.563 76.4465C350.563 90.3732 361.898 101.663 375.881 101.663Z" fill="#29292B"/>
<path d="M393.966 94.4584C387.617 94.4575 381.5 92.0808 376.828 87.7994C372.156 83.5179 369.27 77.6444 368.742 71.3431C368.684 72.0367 368.647 72.7362 368.647 73.4445C368.647 80.1324 371.315 86.5464 376.063 91.2754C380.811 96.0044 387.251 98.6612 393.966 98.6612C400.681 98.6612 407.121 96.0044 411.869 91.2754C416.617 86.5464 419.285 80.1324 419.285 73.4445C419.285 72.7362 419.248 72.0367 419.19 71.3431C418.662 77.6444 415.776 83.518 411.103 87.7994C406.431 92.0808 400.315 94.4575 393.966 94.4584Z" fill="#29292B"/>
<path d="M367.586 137.736C368.748 137.46 369.176 135.091 368.542 132.446C367.907 129.8 366.451 127.88 365.289 128.156C364.127 128.433 363.699 130.801 364.334 133.447C364.968 136.092 366.424 138.013 367.586 137.736Z" fill="#FFC8C8"/>
<path d="M367.365 137.256C368.047 137.256 368.601 136.704 368.601 136.024C368.601 135.344 368.047 134.793 367.365 134.793C366.682 134.793 366.129 135.344 366.129 136.024C366.129 136.704 366.682 137.256 367.365 137.256Z" fill="#F2F2F2"/>
<path d="M73.4966 241.478C71.5125 241.478 69.573 240.892 67.9234 239.794C66.2737 238.697 64.9879 237.136 64.2286 235.311C63.4694 233.485 63.2707 231.476 63.6578 229.538C64.0449 227.6 65.0003 225.82 66.4032 224.422C67.8061 223.025 69.5936 222.073 71.5395 221.688C73.4855 221.302 75.5025 221.5 77.3355 222.257C79.1685 223.013 80.7352 224.293 81.8375 225.936C82.9398 227.579 83.5281 229.511 83.5281 231.487C83.5252 234.136 82.4673 236.676 80.5867 238.549C78.706 240.422 76.1562 241.475 73.4966 241.478ZM73.4966 223.161C71.8432 223.161 70.227 223.649 68.8522 224.564C67.4775 225.479 66.406 226.78 65.7733 228.301C65.1406 229.822 64.975 231.496 65.2976 233.111C65.6201 234.727 66.4163 236.21 67.5854 237.375C68.7546 238.539 70.2441 239.332 71.8657 239.653C73.4873 239.974 75.1682 239.81 76.6957 239.179C78.2232 238.549 79.5288 237.482 80.4474 236.113C81.3659 234.744 81.8562 233.134 81.8562 231.487C81.8537 229.28 80.9721 227.163 79.4049 225.603C77.8377 224.042 75.7129 223.164 73.4966 223.161Z" fill="#29292B"/>
<path d="M507.78 168.626H486.045V146.979H507.78V168.626ZM487.717 166.961H506.108V148.644H487.717V166.961Z" fill="#29292B"/>
<path d="M209.682 139.792L120.229 93.9791C117.295 92.4768 115.081 89.8754 114.073 86.7472C113.066 83.6189 113.347 80.2202 114.855 77.2985L135.93 36.4803C136.236 35.8876 136.66 35.3631 137.176 34.939C137.692 34.5148 138.29 34.1999 138.932 34.0133L209.439 13.5378C212.258 12.7192 215.284 13.0083 217.896 14.3457C220.507 15.6831 222.504 17.9669 223.476 20.7267L246.641 86.5414C247.22 88.1855 247.456 89.9298 247.336 91.6679C247.215 93.4059 246.741 95.1014 245.941 96.6507L226.43 134.441C225.683 135.887 224.658 137.173 223.412 138.225C222.166 139.277 220.724 140.074 219.169 140.571C217.614 141.068 215.976 141.255 214.348 141.121C212.72 140.988 211.135 140.536 209.682 139.792Z" fill="#F2F2F2"/>
<path opacity="0.1" d="M213.236 123.615L122.914 85.2099C120.004 83.7194 122.733 86.0104 124.229 83.1118L135.584 37.1505L246.228 93.8165L218.256 128.264C216.76 131.163 216.146 125.105 213.236 123.615Z" fill="black"/>
<path d="M165.091 15.5782L129.037 85.4108C127.308 88.7583 128.632 92.8674 131.993 94.5887L202.108 130.498C205.469 132.219 209.595 130.901 211.323 127.553L247.377 57.7205C249.105 54.3729 247.782 50.2638 244.42 48.5425L174.306 12.6337C170.945 10.9124 166.819 12.2307 165.091 15.5782Z" fill="#EE383C"/>
<path opacity="0.1" d="M231.447 88.5734L208.193 133.614L125.907 91.4717L149.161 46.4315L180.079 87.3087L231.447 88.5734Z" fill="black"/>
<path d="M178.764 89.855L139.149 37.4785C138.904 37.1545 138.58 36.8979 138.208 36.7325C137.836 36.5671 137.428 36.4985 137.023 36.5331C136.617 36.5677 136.227 36.7043 135.888 36.9301C135.55 37.156 135.275 37.4637 135.089 37.8244L112.546 81.4874C112.095 82.3609 111.821 83.3144 111.74 84.2933C111.659 85.2723 111.772 86.2575 112.074 87.1928C112.375 88.1281 112.858 88.9951 113.496 89.7444C114.134 90.4937 114.913 91.1105 115.79 91.5597L214.007 141.861C214.885 142.31 215.842 142.583 216.825 142.663C217.808 142.744 218.797 142.631 219.736 142.331C220.675 142.031 221.546 141.55 222.298 140.915C223.05 140.279 223.67 139.503 224.12 138.629L246.277 95.7144C246.504 95.2743 246.616 94.7839 246.601 94.2892C246.586 93.7944 246.445 93.3116 246.191 92.886C245.938 92.4603 245.58 92.1058 245.151 91.8556C244.722 91.6054 244.236 91.4677 243.74 91.4555L178.764 89.855Z" fill="#F2F2F2"/>
<path d="M194.437 32.4575L171.425 20.672L169.752 23.9131L192.764 35.6987L194.437 32.4575Z" fill="#F2F2F2"/>
<path d="M231.809 66.5262L163.469 31.5267L162.513 33.3788L230.853 68.3783L231.809 66.5262Z" fill="#F2F2F2"/>
<path d="M228.582 72.777L160.242 37.7775L159.286 39.6296L227.625 74.6291L228.582 72.777Z" fill="#F2F2F2"/>
<path d="M225.354 79.0279L157.015 44.0283L156.059 45.8804L224.398 80.8799L225.354 79.0279Z" fill="#F2F2F2"/>
<path d="M180.454 17.4146C183.166 12.1628 181.097 5.72009 175.834 3.02445C170.57 0.328813 164.105 2.40099 161.394 7.65279C158.682 12.9046 160.751 19.3473 166.015 22.0429C171.278 24.7385 177.743 22.6664 180.454 17.4146Z" fill="white"/>
<path d="M176.67 1.40388C174.418 0.250176 171.872 -0.212307 169.355 0.0749218C166.839 0.362151 164.464 1.3862 162.532 3.01755C160.6 4.6489 159.196 6.81429 158.5 9.2399C157.803 11.6655 157.844 14.2424 158.618 16.6447C159.392 19.047 160.864 21.1668 162.847 22.736C164.831 24.3053 167.237 25.2535 169.761 25.4608C172.286 25.6681 174.815 25.1251 177.03 23.9005C179.245 22.676 181.045 20.8248 182.203 18.5812C183.746 15.5708 184.031 12.0744 182.994 8.85595C181.957 5.63746 179.684 2.95836 176.67 1.40388ZM165.353 17.5988L162.517 8.79541L164.996 8.00324L167.039 14.3456L180.48 10.0509L181.275 12.5202L165.353 17.5988Z" fill="#47C287"/>
</svg>
