<svg width="530" height="460" viewBox="0 0 530 460" fill="none" xmlns="http://www.w3.org/2000/svg">
<g clip-path="url(#clip0)">
<path d="M304.532 277.15L243.174 295.44L254.415 333.144L315.773 314.854L304.532 277.15Z" fill="url(#paint0_linear)"/>
<path d="M303.482 278.477L244.204 296.148L254.696 331.339L313.974 313.669L303.482 278.477Z" fill="white"/>
<g opacity="0.6">
<path opacity="0.6" d="M249.271 303.575L256.814 301.327L255.15 295.745L247.607 297.994L249.271 303.575Z" fill="#EE383C"/>
<path opacity="0.6" d="M258.695 312.586L287.652 303.955L287.113 302.145L258.156 310.777L258.695 312.586Z" fill="#EE383C"/>
<path opacity="0.6" d="M267.71 314.168L288.825 307.874L288.465 306.668L267.35 312.962L267.71 314.168Z" fill="#EE383C"/>
</g>
<path d="M400.151 187.765L392.63 226.383L455.475 238.621L462.997 200.002L400.151 187.765Z" fill="url(#paint1_linear)"/>
<path d="M399.745 189.465L392.767 225.453L453.387 237.204L460.365 201.217L399.745 189.465Z" fill="white"/>
<g opacity="0.6">
<path opacity="0.6" d="M401.711 197.851L409.438 199.356L410.551 193.639L402.825 192.135L401.711 197.851Z" fill="#EE383C"/>
<path opacity="0.6" d="M405.882 210.205L435.541 215.98L435.902 214.126L406.243 208.351L405.882 210.205Z" fill="#EE383C"/>
<path opacity="0.6" d="M413.135 215.79L434.762 220.002L435.002 218.766L413.376 214.555L413.135 215.79Z" fill="#EE383C"/>
</g>
<path d="M439.234 264.006L403.137 279.663L428.616 338.396L464.713 322.739L439.234 264.006Z" fill="url(#paint2_linear)"/>
<path d="M438.649 265.119L404.957 279.732L429.573 336.475L463.265 321.862L438.649 265.119Z" fill="white"/>
<g opacity="0.6">
<path opacity="0.6" d="M431.788 271.013L434.92 278.234L440.263 275.917L437.131 268.696L431.788 271.013Z" fill="#47E6B1"/>
<path opacity="0.6" d="M423.963 281.446L435.988 309.164L437.72 308.413L425.696 280.694L423.963 281.446Z" fill="#47E6B1"/>
<path opacity="0.6" d="M423.461 290.584L432.228 310.795L433.383 310.294L424.616 290.083L423.461 290.584Z" fill="#47E6B1"/>
</g>
<path d="M263.915 91.6822L202.557 109.972L213.798 147.676L275.156 129.386L263.915 91.6822Z" fill="url(#paint3_linear)"/>
<path d="M262.866 93.0158L203.587 110.686L214.079 145.878L273.357 128.207L262.866 93.0158Z" fill="white"/>
<g opacity="0.6">
<path opacity="0.6" d="M208.62 118.125L216.164 115.877L214.5 110.295L206.956 112.544L208.62 118.125Z" fill="#EE383C"/>
<path opacity="0.6" d="M218.051 127.135L247.007 118.503L246.468 116.694L217.511 125.325L218.051 127.135Z" fill="#EE383C"/>
<path opacity="0.6" d="M227.059 128.718L248.174 122.424L247.814 121.218L226.7 127.512L227.059 128.718Z" fill="#EE383C"/>
</g>
<path d="M359.519 2.30619L351.998 40.9244L414.844 53.1621L422.365 14.5438L359.519 2.30619Z" fill="url(#paint4_linear)"/>
<path d="M360.104 3.42049L353.084 39.4654L413.8 51.2883L420.82 15.2434L360.104 3.42049Z" fill="white"/>
<g opacity="0.6">
<path opacity="0.6" d="M361.078 12.3968L368.804 13.9014L369.918 8.18481L362.191 6.68022L361.078 12.3968Z" fill="#EE383C"/>
<path opacity="0.6" d="M365.248 24.7501L394.908 30.5255L395.269 28.6719L365.609 22.8965L365.248 24.7501Z" fill="#EE383C"/>
<path opacity="0.6" d="M372.503 30.331L394.129 34.5422L394.37 33.3066L372.743 29.0953L372.503 30.331Z" fill="#EE383C"/>
</g>
<path d="M398.595 78.553L362.497 94.2098L387.977 152.943L424.074 137.286L398.595 78.553Z" fill="url(#paint5_linear)"/>
<path d="M398.016 79.6631L364.324 94.2766L388.94 151.019L422.632 136.406L398.016 79.6631Z" fill="white"/>
<g opacity="0.6">
<path opacity="0.6" d="M391.157 85.5606L394.289 92.7816L399.633 90.464L396.5 83.2429L391.157 85.5606Z" fill="#47E6B1"/>
<path opacity="0.6" d="M383.326 95.9931L395.351 123.711L397.083 122.96L385.059 95.2416L383.326 95.9931Z" fill="#47E6B1"/>
<path opacity="0.6" d="M382.826 105.137L391.594 125.348L392.749 124.847L383.981 104.636L382.826 105.137Z" fill="#47E6B1"/>
</g>
<path d="M91.5337 231.257L30.176 249.547L41.417 287.251L102.775 268.961L91.5337 231.257Z" fill="url(#paint6_linear)"/>
<path d="M90.49 232.589L31.2116 250.259L41.7036 285.451L100.982 267.781L90.49 232.589Z" fill="white"/>
<g opacity="0.6">
<path opacity="0.6" d="M36.2733 257.722L43.8171 255.474L42.1531 249.892L34.6094 252.141L36.2733 257.722Z" fill="#EE383C"/>
<path opacity="0.6" d="M45.7038 266.732L74.6607 258.1L74.1212 256.291L45.1643 264.922L45.7038 266.732Z" fill="#EE383C"/>
<path opacity="0.6" d="M54.7186 268.314L75.833 262.02L75.4733 260.813L54.3589 267.107L54.7186 268.314Z" fill="#EE383C"/>
</g>
<path d="M187.157 141.892L179.636 180.51L242.481 192.748L250.003 154.129L187.157 141.892Z" fill="url(#paint7_linear)"/>
<path d="M187.068 143.313L180.09 179.3L240.71 191.052L247.688 155.064L187.068 143.313Z" fill="white"/>
<g opacity="0.6">
<path opacity="0.6" d="M188.71 151.976L196.437 153.481L197.55 147.764L189.823 146.26L188.71 151.976Z" fill="#EE383C"/>
<path opacity="0.6" d="M192.887 164.331L222.546 170.106L222.907 168.252L193.248 162.477L192.887 164.331Z" fill="#EE383C"/>
<path opacity="0.6" d="M200.14 169.916L221.766 174.128L222.007 172.892L200.381 168.681L200.14 169.916Z" fill="#EE383C"/>
</g>
<path d="M226.235 218.135L190.138 233.792L215.617 292.525L251.714 276.868L226.235 218.135Z" fill="url(#paint8_linear)"/>
<path d="M225.656 219.246L191.964 233.859L216.58 290.602L250.272 275.988L225.656 219.246Z" fill="white"/>
<g opacity="0.6">
<path opacity="0.6" d="M218.792 225.143L221.925 232.364L227.268 230.047L224.135 222.826L218.792 225.143Z" fill="#47E6B1"/>
<path opacity="0.6" d="M210.968 235.57L222.992 263.288L224.725 262.536L212.7 234.818L210.968 235.57Z" fill="#47E6B1"/>
<path opacity="0.6" d="M210.467 244.711L219.235 264.922L220.39 264.421L211.622 244.21L210.467 244.711Z" fill="#47E6B1"/>
</g>
<path d="M98.7534 120.506L37.3957 138.796L48.6367 176.5L109.994 158.21L98.7534 120.506Z" fill="url(#paint9_linear)"/>
<path d="M98.8053 121.245L39.4231 139.181L50.0734 174.435L109.456 156.498L98.8053 121.245Z" fill="white"/>
<g opacity="0.6">
<path opacity="0.6" d="M43.4753 146.973L51.019 144.724L49.3551 139.143L41.8113 141.392L43.4753 146.973Z" fill="#EE383C"/>
<path opacity="0.6" d="M52.8999 155.984L81.8568 147.353L81.3172 145.543L52.3603 154.175L52.8999 155.984Z" fill="#EE383C"/>
<path opacity="0.6" d="M61.9146 157.566L83.029 151.272L82.6693 150.066L61.555 156.36L61.9146 157.566Z" fill="#EE383C"/>
</g>
<path d="M193.856 31.5979L186.38 70.1547L249.126 82.3186L256.602 43.7618L193.856 31.5979Z" fill="url(#paint10_linear)"/>
<path d="M194.951 32.2564L187.931 68.3013L248.647 80.1243L255.667 44.0794L194.951 32.2564Z" fill="white"/>
<g opacity="0.6">
<path opacity="0.6" d="M195.925 41.2323L203.652 42.7369L204.765 37.0204L197.038 35.5158L195.925 41.2323Z" fill="#EE383C"/>
<path opacity="0.6" d="M200.097 53.5796L229.756 59.355L230.117 57.5015L200.458 51.7261L200.097 53.5796Z" fill="#EE383C"/>
<path opacity="0.6" d="M207.344 59.1654L228.97 63.3766L229.211 62.1409L207.585 57.9297L207.344 59.1654Z" fill="#EE383C"/>
</g>
<path d="M233.447 107.39L197.349 123.047L222.828 181.78L258.926 166.123L233.447 107.39Z" fill="url(#paint11_linear)"/>
<path d="M232.862 108.502L199.17 123.116L223.786 179.859L257.478 165.245L232.862 108.502Z" fill="white"/>
<g opacity="0.6">
<path opacity="0.6" d="M226.007 114.397L229.14 121.618L234.483 119.3L231.351 112.079L226.007 114.397Z" fill="#47E6B1"/>
<path opacity="0.6" d="M218.177 124.829L230.201 152.547L231.934 151.796L219.909 124.078L218.177 124.829Z" fill="#47E6B1"/>
<path opacity="0.6" d="M217.68 133.958L226.448 154.17L227.603 153.669L218.835 133.457L217.68 133.958Z" fill="#47E6B1"/>
</g>
<path opacity="0.25" d="M39.0537 40.7799C40.9001 40.7799 42.3968 39.2832 42.3968 37.437C42.3968 35.5909 40.9001 34.0942 39.0537 34.0942C37.2074 34.0942 35.7106 35.5909 35.7106 37.437C35.7106 39.2832 37.2074 40.7799 39.0537 40.7799Z" fill="#535461"/>
<path opacity="0.25" d="M388.068 333.566C389.915 333.566 391.411 332.069 391.411 330.223C391.411 328.377 389.915 326.88 388.068 326.88C386.222 326.88 384.725 328.377 384.725 330.223C384.725 332.069 386.222 333.566 388.068 333.566Z" fill="#535461"/>
<path opacity="0.25" d="M92.7694 316.944C94.6157 316.944 96.1124 315.447 96.1124 313.601C96.1124 311.755 94.6157 310.258 92.7694 310.258C90.923 310.258 89.4263 311.755 89.4263 313.601C89.4263 315.447 90.923 316.944 92.7694 316.944Z" fill="#535461"/>
<path opacity="0.25" d="M419.146 270.413C420.992 270.413 422.489 268.917 422.489 267.07C422.489 265.224 420.992 263.728 419.146 263.728C417.3 263.728 415.803 265.224 415.803 267.07C415.803 268.917 417.3 270.413 419.146 270.413Z" fill="#535461"/>
<path opacity="0.25" d="M450.603 117.072C452.449 117.072 453.946 115.575 453.946 113.729C453.946 111.883 452.449 110.386 450.603 110.386C448.757 110.386 447.26 111.883 447.26 113.729C447.26 115.575 448.757 117.072 450.603 117.072Z" fill="#535461"/>
<path opacity="0.25" d="M203.788 2.97614H200.818V0H199.602V2.97614H196.632V4.18615H199.602V7.15618H200.818V4.18615H203.788V2.97614Z" fill="#535461"/>
<path opacity="0.25" d="M89.408 48.5227H86.4377V45.5527H85.2215V48.5227H82.2512V49.7388H85.2215V52.7089H86.4377V49.7388H89.408V48.5227Z" fill="#535461"/>
<path opacity="0.25" d="M42.8796 218.248H39.9093V215.278H38.6931V218.248H35.7228V219.464H38.6931V222.434H39.9093V219.464H42.8796V218.248Z" fill="#535461"/>
<path opacity="0.25" d="M36.1996 97.2104H33.2232V94.2343H32.013V97.2104H29.0367V98.4204H32.013V101.397H33.2232V98.4204H36.1996V97.2104Z" fill="#535461"/>
<path opacity="0.25" d="M7.15679 180.383H4.18651V177.407H2.9764V180.383H0V181.593H2.9764V184.563H4.18651V181.593H7.15679V180.383Z" fill="#535461"/>
<path opacity="0.25" d="M530 137.495H527.03V134.525H525.813V137.495H522.843V138.711H525.813V141.681H527.03V138.711H530V137.495Z" fill="#535461"/>
<path opacity="0.25" d="M426.45 176.161H423.479V173.184H422.263V176.161H419.293V177.371H422.263V180.347H423.479V177.371H426.45V176.161Z" fill="#535461"/>
<path opacity="0.25" d="M338.026 71.8796H335.049V68.9095H333.839V71.8796H330.863V73.0957H333.839V76.0657H335.049V73.0957H338.026V71.8796Z" fill="#535461"/>
<path d="M167.399 241.843C165.26 248.786 168.469 256.993 174.733 260.648C177.355 262.175 180.381 262.951 182.929 264.608C188.46 268.207 190.642 275.113 192.439 281.462C194.499 288.765 196.57 296.483 194.682 303.829C193.46 308.51 190.74 312.654 189.181 317.237C187.88 321.074 187.427 325.149 187.855 329.178C188.081 331.317 188.619 333.542 190.08 335.118C192.194 337.398 195.58 337.74 198.636 338.29C205.108 339.519 211.197 342.264 216.402 346.301C221.608 350.337 225.783 355.55 228.583 361.512" stroke="url(#paint12_linear)" stroke-width="2" stroke-miterlimit="10"/>
<path d="M168.053 241.843C165.914 248.786 169.123 256.993 175.387 260.648C178.009 262.175 181.035 262.951 183.583 264.608C189.114 268.207 191.296 275.113 193.093 281.462C195.153 288.765 197.224 296.483 195.336 303.829C194.114 308.51 191.394 312.654 189.835 317.237C188.534 321.074 188.081 325.149 188.509 329.178C188.735 331.317 189.273 333.542 190.734 335.118C192.848 337.398 196.234 337.74 199.29 338.29C205.762 339.519 211.851 342.264 217.056 346.301C222.262 350.337 226.436 355.55 229.237 361.512" stroke="#535461" stroke-width="2" stroke-miterlimit="10"/>
<path d="M249.015 189.972C243.74 197.305 238.264 205.25 237.812 214.276C237.121 228.167 248.202 239.527 253.195 252.52C255.343 258.241 256.314 264.338 256.052 270.444C255.789 276.549 254.298 282.54 251.667 288.056C249.223 293.061 245.794 298.03 246.216 303.572C246.472 306.958 248.165 310.032 249.528 313.142C252.873 320.937 254.333 329.411 253.789 337.876C253.246 346.34 250.714 354.558 246.399 361.861" stroke="url(#paint13_linear)" stroke-width="2" stroke-miterlimit="10"/>
<path d="M249.669 189.972C244.394 197.305 238.918 205.25 238.466 214.276C237.776 228.167 248.856 239.527 253.849 252.52C255.998 258.241 256.97 264.337 256.709 270.443C256.447 276.549 254.957 282.539 252.327 288.056C249.883 293.061 246.454 298.03 246.876 303.572C247.133 306.958 248.825 310.032 250.188 313.142C253.533 320.937 254.993 329.411 254.449 337.876C253.906 346.34 251.374 354.558 247.059 361.861" stroke="#535461" stroke-width="2" stroke-miterlimit="10"/>
<path d="M323.064 256.131L325.613 276.909C325.949 279.672 326.224 282.684 324.757 285.037C323.351 287.268 320.717 288.331 318.645 289.981C311.923 295.39 312.534 305.779 314.832 314.108C317.13 322.438 320.503 331.384 317.276 339.396C315.944 342.702 313.609 345.507 311.831 348.563C308.85 353.868 307.669 359.996 308.463 366.029" stroke="url(#paint14_linear)" stroke-width="2" stroke-miterlimit="10"/>
<path d="M323.675 256.131L326.224 276.909C326.56 279.672 326.835 282.684 325.368 285.037C323.963 287.268 321.328 288.331 319.257 289.981C312.534 295.39 313.145 305.779 315.443 314.108C317.741 322.438 321.115 331.384 317.888 339.396C316.555 342.702 314.221 345.507 312.442 348.563C309.461 353.868 308.28 359.996 309.075 366.029" stroke="#535461" stroke-width="2" stroke-miterlimit="10"/>
<g opacity="0.7">
<path opacity="0.7" d="M389.205 170.654C389.197 160.929 386.889 151.344 382.469 142.681C378.049 134.019 371.642 126.524 363.773 120.81C355.903 115.096 346.793 111.324 337.187 109.802C327.581 108.28 317.751 109.052 308.5 112.054C309.01 108.59 309.273 105.094 309.288 101.592C309.387 85.5665 303.239 70.1327 292.147 58.5644C281.055 46.9961 265.893 40.2034 249.876 39.6271C233.859 39.0507 218.247 44.736 206.353 55.4772C194.458 66.2183 187.216 81.1702 186.162 97.1615C176.91 94.1534 167.077 93.3769 157.468 94.8954C147.858 96.4139 138.744 100.184 130.871 105.899C122.997 111.613 116.587 119.109 112.165 127.774C107.743 136.439 105.434 146.027 105.427 155.755C105.427 186.678 128.199 230.66 157.896 238.452L162.51 241.092L160.004 249.684H174.856L171.629 241.08L176.225 238.452C199.168 232.432 217.974 204.81 225.344 178.293C229.376 180.982 233.815 183.002 238.491 184.276L243.105 186.916L240.599 195.509H255.451L252.224 186.904L256.82 184.276C260.23 183.359 263.514 182.025 266.598 180.304C270.565 210.035 291.656 246.341 318.389 253.351L323.003 255.991L320.497 264.583H335.349L332.122 255.979L336.718 253.351C366.457 245.559 389.205 201.577 389.205 170.654Z" fill="url(#paint15_linear)"/>
</g>
<path d="M177.196 246.531H162.828L165.34 237.908H173.963L177.196 246.531Z" fill="#EE383C"/>
<path d="M229.292 155.645C229.292 188.578 202.59 236.832 169.655 236.832C136.719 236.832 110.017 188.554 110.017 155.645C110.017 139.83 116.3 124.662 127.484 113.479C138.668 102.295 153.838 96.0126 169.655 96.0126C185.471 96.0126 200.641 102.295 211.825 113.479C223.009 124.662 229.292 139.83 229.292 155.645Z" fill="#EE383C"/>
<path d="M173.963 238.268H165.34L160.31 235.396H178.993L173.963 238.268Z" fill="#535461"/>
<path opacity="0.1" d="M148.099 109.304C148.099 109.304 122.949 122.957 119.374 150.249L148.099 109.304Z" fill="white"/>
<path d="M255.188 194.109H240.819L243.331 185.486H251.955L255.188 194.109Z" fill="#4D8AF0"/>
<path d="M307.284 103.218C307.284 136.151 280.582 184.405 247.646 184.405C214.71 184.405 187.996 136.157 187.996 103.218C187.996 87.4021 194.279 72.2343 205.463 61.0509C216.648 49.8676 231.817 43.5849 247.634 43.5849C263.451 43.5849 278.62 49.8676 289.804 61.0509C300.988 72.2343 307.272 87.4021 307.272 103.218H307.284Z" fill="#4D8AF0"/>
<path d="M251.955 185.847H243.331L238.301 182.968H256.984L251.955 185.847Z" fill="#535461"/>
<path opacity="0.1" d="M226.09 56.8766C226.09 56.8766 200.94 70.529 197.365 97.8215L226.09 56.8766Z" fill="white"/>
<path d="M332.525 260.947H318.15L320.668 252.33H329.286L332.525 260.947Z" fill="#3AD29F"/>
<path d="M384.621 170.062C384.621 202.995 357.919 251.249 324.983 251.249C292.047 251.249 265.345 202.97 265.345 170.062C265.345 154.246 271.629 139.078 282.813 127.895C293.997 116.712 309.166 110.429 324.983 110.429C340.8 110.429 355.969 116.712 367.154 127.895C378.338 139.078 384.621 154.246 384.621 170.062Z" fill="#47C287"/>
<path d="M329.286 252.685H320.668L315.638 249.812H334.316L329.286 252.685Z" fill="#535461"/>
<path opacity="0.1" d="M303.421 123.721C303.421 123.721 278.272 137.373 274.696 164.665L303.421 123.721Z" fill="white"/>
<path d="M345.413 351.37L180.482 359.616L185.55 460.97L350.481 452.724L345.413 351.37Z" fill="url(#paint16_linear)"/>
<path d="M341.837 353.045L182.707 361.189L187.543 455.654L346.672 447.51L341.837 353.045Z" fill="#EEEEEE"/>
<path d="M190.705 383.031L210.951 381.995L210.185 367.011L189.939 368.047L190.705 383.031Z" fill="#EE383C"/>
<path d="M208.803 411.335L286.546 407.356L286.297 402.498L208.554 406.477L208.803 411.335Z" fill="#EE383C"/>
<path d="M230.389 420.785L287.08 417.883L286.915 414.643L230.223 417.544L230.389 420.785Z" fill="#EE383C"/>
</g>
<defs>
<linearGradient id="paint0_linear" x1="285.094" y1="323.999" x2="273.855" y2="286.294" gradientUnits="userSpaceOnUse">
<stop stop-color="#808080" stop-opacity="0.25"/>
<stop offset="0.54" stop-color="#808080" stop-opacity="0.12"/>
<stop offset="1" stop-color="#808080" stop-opacity="0.1"/>
</linearGradient>
<linearGradient id="paint1_linear" x1="3221.33" y1="22409.2" x2="4009.12" y2="18363.6" gradientUnits="userSpaceOnUse">
<stop stop-color="#808080" stop-opacity="0.25"/>
<stop offset="0.54" stop-color="#808080" stop-opacity="0.12"/>
<stop offset="1" stop-color="#808080" stop-opacity="0.1"/>
</linearGradient>
<linearGradient id="paint2_linear" x1="-22602.6" y1="20117.1" x2="-18821.2" y2="18476.7" gradientUnits="userSpaceOnUse">
<stop stop-color="#808080" stop-opacity="0.25"/>
<stop offset="0.54" stop-color="#808080" stop-opacity="0.12"/>
<stop offset="1" stop-color="#808080" stop-opacity="0.1"/>
</linearGradient>
<linearGradient id="paint3_linear" x1="4247.62" y1="11347.4" x2="3524.04" y2="8919.94" gradientUnits="userSpaceOnUse">
<stop stop-color="#808080" stop-opacity="0.25"/>
<stop offset="0.54" stop-color="#808080" stop-opacity="0.12"/>
<stop offset="1" stop-color="#808080" stop-opacity="0.1"/>
</linearGradient>
<linearGradient id="paint4_linear" x1="2026.28" y1="3387.83" x2="2814.08" y2="-657.841" gradientUnits="userSpaceOnUse">
<stop stop-color="#808080" stop-opacity="0.25"/>
<stop offset="0.54" stop-color="#808080" stop-opacity="0.12"/>
<stop offset="1" stop-color="#808080" stop-opacity="0.1"/>
</linearGradient>
<linearGradient id="paint5_linear" x1="-23679.6" y1="7554.41" x2="-19898.2" y2="5913.96" gradientUnits="userSpaceOnUse">
<stop stop-color="#808080" stop-opacity="0.25"/>
<stop offset="0.54" stop-color="#808080" stop-opacity="0.12"/>
<stop offset="1" stop-color="#808080" stop-opacity="0.1"/>
</linearGradient>
<linearGradient id="paint6_linear" x1="-14580.1" y1="22782.8" x2="-15303.8" y2="20355" gradientUnits="userSpaceOnUse">
<stop stop-color="#808080" stop-opacity="0.25"/>
<stop offset="0.54" stop-color="#808080" stop-opacity="0.12"/>
<stop offset="1" stop-color="#808080" stop-opacity="0.1"/>
</linearGradient>
<linearGradient id="paint7_linear" x1="-10239.9" y1="19280.8" x2="-9452.13" y2="15235.1" gradientUnits="userSpaceOnUse">
<stop stop-color="#808080" stop-opacity="0.25"/>
<stop offset="0.54" stop-color="#808080" stop-opacity="0.12"/>
<stop offset="1" stop-color="#808080" stop-opacity="0.1"/>
</linearGradient>
<linearGradient id="paint8_linear" x1="-42751.3" y1="20188" x2="-38969.8" y2="18547.5" gradientUnits="userSpaceOnUse">
<stop stop-color="#808080" stop-opacity="0.25"/>
<stop offset="0.54" stop-color="#808080" stop-opacity="0.12"/>
<stop offset="1" stop-color="#808080" stop-opacity="0.1"/>
</linearGradient>
<linearGradient id="paint9_linear" x1="-12662" y1="15103.8" x2="-13385.6" y2="12676.4" gradientUnits="userSpaceOnUse">
<stop stop-color="#808080" stop-opacity="0.25"/>
<stop offset="0.54" stop-color="#808080" stop-opacity="0.12"/>
<stop offset="1" stop-color="#808080" stop-opacity="0.1"/>
</linearGradient>
<linearGradient id="paint10_linear" x1="-8890.33" y1="7671.78" x2="-8107.28" y2="3632.54" gradientUnits="userSpaceOnUse">
<stop stop-color="#808080" stop-opacity="0.25"/>
<stop offset="0.54" stop-color="#808080" stop-opacity="0.12"/>
<stop offset="1" stop-color="#808080" stop-opacity="0.1"/>
</linearGradient>
<linearGradient id="paint11_linear" x1="-40310.7" y1="12192.5" x2="-36529.2" y2="10552.1" gradientUnits="userSpaceOnUse">
<stop stop-color="#808080" stop-opacity="0.25"/>
<stop offset="0.54" stop-color="#808080" stop-opacity="0.12"/>
<stop offset="1" stop-color="#808080" stop-opacity="0.1"/>
</linearGradient>
<linearGradient id="paint12_linear" x1="27268.7" y1="68133.6" x2="33649.9" y2="68133.6" gradientUnits="userSpaceOnUse">
<stop stop-color="#808080" stop-opacity="0.25"/>
<stop offset="0.54" stop-color="#808080" stop-opacity="0.12"/>
<stop offset="1" stop-color="#808080" stop-opacity="0.1"/>
</linearGradient>
<linearGradient id="paint13_linear" x1="10391.4" y1="90452.3" x2="10976.9" y2="90452.3" gradientUnits="userSpaceOnUse">
<stop stop-color="#808080" stop-opacity="0.25"/>
<stop offset="0.54" stop-color="#808080" stop-opacity="0.12"/>
<stop offset="1" stop-color="#808080" stop-opacity="0.1"/>
</linearGradient>
<linearGradient id="paint14_linear" x1="12133" y1="64294.3" x2="12678.6" y2="64294.3" gradientUnits="userSpaceOnUse">
<stop stop-color="#808080" stop-opacity="0.25"/>
<stop offset="0.54" stop-color="#808080" stop-opacity="0.12"/>
<stop offset="1" stop-color="#808080" stop-opacity="0.1"/>
</linearGradient>
<linearGradient id="paint15_linear" x1="162160" y1="114020" x2="162160" y2="31318.5" gradientUnits="userSpaceOnUse">
<stop stop-color="#808080" stop-opacity="0.25"/>
<stop offset="0.54" stop-color="#808080" stop-opacity="0.12"/>
<stop offset="1" stop-color="#808080" stop-opacity="0.1"/>
</linearGradient>
<linearGradient id="paint16_linear" x1="811.233" y1="80081.6" x2="-29.172" y2="63272.1" gradientUnits="userSpaceOnUse">
<stop stop-color="#808080" stop-opacity="0.25"/>
<stop offset="0.54" stop-color="#808080" stop-opacity="0.12"/>
<stop offset="1" stop-color="#808080" stop-opacity="0.1"/>
</linearGradient>
<clipPath id="clip0">
<rect width="530" height="460" fill="white"/>
</clipPath>
</defs>
</svg>
