<svg width="520" height="460" viewBox="0 0 520 460" fill="none" xmlns="http://www.w3.org/2000/svg">
<g clip-path="url(#clip0)">
<path d="M101.672 458.163C106.896 453.775 110.068 446.842 109.236 440.093C108.404 433.344 103.251 427.139 96.5665 425.706C89.8821 424.273 82.2623 428.24 80.232 434.733C79.1147 422.215 77.8271 409.172 71.134 398.512C65.0736 388.859 54.5768 381.952 43.2007 380.717C31.8245 379.481 19.8469 384.148 12.752 393.076C5.65716 402.005 3.92 414.985 8.88907 425.236C12.5496 432.788 19.2936 438.407 26.3597 442.979C48.9028 457.566 76.8675 462.494 103.476 458.6L101.672 458.163Z" fill="#F2F2F2"/>
<path d="M24.0016 384.407C33.3883 392.009 41.9997 400.512 49.7111 409.792C57.4237 419.063 64.2138 429.056 69.986 439.631C73.2125 445.562 76.1108 451.665 78.6682 457.911C79.1896 459.181 77.1148 459.735 76.5992 458.478C72.0694 447.466 66.4653 436.923 59.867 426.998C53.3009 417.11 45.7855 407.878 37.4266 399.432C32.6988 394.658 27.7105 390.145 22.4844 385.915C21.4132 385.048 22.9393 383.546 24.0016 384.407H24.0016Z" fill="white"/>
<path d="M475.587 190.327H404.138C403.06 190.325 402.026 189.899 401.264 189.141C400.502 188.383 400.073 187.356 400.072 186.284V177.759C400.073 176.688 400.502 175.66 401.264 174.902C402.026 174.144 403.06 173.718 404.138 173.717H475.587C476.665 173.718 477.698 174.144 478.46 174.902C479.222 175.66 479.651 176.688 479.652 177.759V186.284C479.651 187.356 479.222 188.383 478.46 189.141C477.698 189.899 476.665 190.325 475.587 190.327Z" fill="#EE383C"/>
<path d="M465.945 177.292L435.496 149.992C434.84 149.403 433.997 149.063 433.114 149.029C432.231 148.995 431.364 149.271 430.665 149.807L364.027 171.686C363.077 171.999 362.291 172.674 361.841 173.563C361.39 174.452 361.313 175.482 361.626 176.428L364.314 184.523C364.468 184.991 364.715 185.425 365.038 185.799C365.362 186.173 365.756 186.479 366.2 186.701C366.643 186.923 367.125 187.056 367.62 187.091C368.115 187.127 368.612 187.066 369.082 186.91L430.21 166.84L455.148 189.2C455.839 189.823 456.739 190.167 457.672 190.166C457.738 190.166 457.805 190.164 457.872 190.161C458.367 190.137 458.853 190.015 459.301 189.803C459.748 189.591 460.15 189.293 460.481 188.925L466.221 182.595C466.89 181.855 467.237 180.881 467.186 179.887C467.134 178.893 466.688 177.96 465.945 177.292Z" fill="#EE383C"/>
<path d="M128.77 381.44C127.846 381.441 126.961 381.806 126.307 382.456C125.654 383.106 125.286 383.986 125.285 384.905V455.953C125.286 456.871 125.654 457.752 126.307 458.402C126.961 459.052 127.846 459.417 128.77 459.418H137.343C138.267 459.417 139.153 459.052 139.806 458.402C140.459 457.752 140.827 456.871 140.828 455.953V384.905C140.827 383.986 140.459 383.106 139.806 382.456C139.153 381.806 138.267 381.441 137.343 381.44H128.77Z" fill="#EE383C"/>
<path d="M155.46 459.995H146.888C145.81 459.994 144.776 459.568 144.014 458.81C143.252 458.052 142.823 457.024 142.822 455.953V384.905C142.823 383.833 143.252 382.806 144.014 382.048C144.776 381.29 145.81 380.863 146.888 380.862H155.46C156.538 380.863 157.571 381.29 158.334 382.048C159.096 382.806 159.525 383.833 159.526 384.905V455.953C159.525 457.024 159.096 458.052 158.334 458.81C157.571 459.568 156.538 459.994 155.46 459.995Z" fill="#EE383C"/>
<path d="M169.496 390.413C169.496 390.413 172.735 419.374 140.037 418.39C107.34 417.407 120.061 388.95 120.061 388.95C120.061 388.95 126.894 383.61 144.167 388.774C161.439 393.939 169.496 390.413 169.496 390.413Z" fill="#CCCCCC"/>
<path d="M155.445 341.126C153.649 341.13 151.9 340.557 150.457 339.493C149.014 338.43 147.955 336.932 147.436 335.222C146.917 333.512 146.966 331.682 147.576 330.002C148.186 328.323 149.325 326.883 150.823 325.898L206.83 289.038C207.275 288.745 207.774 288.542 208.298 288.441C208.822 288.34 209.361 288.342 209.885 288.448C210.408 288.554 210.905 288.761 211.348 289.058C211.79 289.355 212.17 289.736 212.464 290.179L217.196 297.287C217.789 298.181 218.002 299.274 217.787 300.324C217.572 301.374 216.947 302.297 216.049 302.89L160.042 339.749C158.679 340.648 157.08 341.127 155.445 341.126Z" fill="#EE383C"/>
<path d="M145.275 307.005C161.635 307.005 174.897 293.817 174.897 277.55C174.897 261.282 161.635 248.094 145.275 248.094C128.916 248.094 115.654 261.282 115.654 277.55C115.654 293.817 128.916 307.005 145.275 307.005Z" fill="#EE383C"/>
<path d="M145.297 289.915C147.217 289.861 149.607 289.795 151.448 288.458C151.996 288.043 152.447 287.515 152.768 286.909C153.089 286.303 153.273 285.635 153.307 284.951C153.34 284.464 153.26 283.977 153.072 283.527C152.885 283.077 152.595 282.676 152.226 282.356C151.265 281.548 149.861 281.358 148.347 281.8L149.915 270.408L148.764 270.251L146.921 283.644L147.882 283.206C148.996 282.698 150.526 282.439 151.476 283.238C151.71 283.446 151.892 283.706 152.008 283.996C152.124 284.286 152.171 284.599 152.146 284.91C152.118 285.419 151.98 285.916 151.741 286.367C151.502 286.819 151.169 287.213 150.763 287.525C149.33 288.566 147.425 288.7 145.265 288.76L145.297 289.915Z" fill="#29292B"/>
<path d="M161.863 271.39H155.606V272.545H161.863V271.39Z" fill="#29292B"/>
<path d="M142.115 271.39H135.859V272.545H142.115V271.39Z" fill="#29292B"/>
<path d="M115.354 396.515C115.354 396.515 112.796 310.046 148.602 315.98C184.408 321.915 169.489 405.416 169.489 405.416C169.489 405.416 161.816 420.675 143.061 403.721C124.305 386.766 115.354 396.515 115.354 396.515Z" fill="#29292B"/>
<path d="M128.567 252.671C134.331 248.779 141.606 251.423 147.206 254.2C152.645 256.897 158.774 260.329 164.928 257.731C167.332 256.716 169.285 254.732 169.625 252.076C170.029 248.913 168.105 245.952 165.966 243.802C163.641 241.589 160.932 239.814 157.971 238.562C155.068 237.263 152.01 236.338 148.871 235.81C142.653 234.742 136.269 235.167 130.249 237.048C124.23 238.93 118.75 242.215 114.265 246.629C109.927 251.029 106.575 256.292 104.43 262.073C102.285 267.854 101.396 274.021 101.821 280.169C102.31 286.721 104.415 293.403 108.637 298.546C112.598 303.373 118.53 306.765 124.861 307.049C126.412 307.121 127.967 306.995 129.486 306.675C130.58 306.443 131.047 308.113 129.949 308.346C123.355 309.744 116.525 307.667 111.295 303.576C105.79 299.27 102.412 292.752 100.931 286.035C98.0966 273.181 101.647 259.349 109.783 249.059C113.801 243.933 119.005 239.849 124.953 237.156C131.095 234.428 137.806 233.204 144.522 233.585C151.219 233.919 157.717 235.967 163.386 239.529C168.457 242.787 174.172 249.695 170.037 255.807C168.49 258.093 165.923 259.485 163.257 260.057C160.199 260.649 157.034 260.375 154.125 259.266C147.499 256.94 141.372 251.742 133.957 252.53C132.34 252.696 130.791 253.259 129.447 254.167C128.517 254.795 127.644 253.294 128.567 252.671H128.567Z" fill="#29292B"/>
<path d="M381.647 118.515C380.306 117.658 379.25 116.425 378.614 114.971C377.977 113.517 377.788 111.909 378.071 110.348C378.354 108.788 379.096 107.346 380.203 106.205C381.31 105.064 382.732 104.275 384.29 103.937L449.916 89.7318C450.894 89.521 451.916 89.7048 452.759 90.2428C453.601 90.7808 454.194 91.6291 454.408 92.6014L454.124 92.6629L454.408 92.6014L456.231 100.931C456.337 101.413 456.346 101.91 456.258 102.395C456.17 102.881 455.986 103.344 455.718 103.759C455.45 104.173 455.103 104.532 454.696 104.813C454.288 105.094 453.83 105.293 453.345 105.398L387.719 119.603C387.435 119.665 387.148 119.711 386.858 119.743C385.031 119.941 383.191 119.507 381.647 118.515Z" fill="#EE383C"/>
<path d="M376.274 113.806C376.235 113.652 376.2 113.495 376.17 113.337C375.63 110.511 376.616 107.535 378.945 104.958C381.475 102.281 384.778 100.452 388.398 99.722L418.316 93.2129C418.809 93.1057 419.319 93.0978 419.815 93.1898C420.311 93.2817 420.783 93.4716 421.204 93.7482C421.625 94.0248 421.986 94.3825 422.266 94.8002C422.546 95.2178 422.738 95.687 422.832 96.1799L425.443 109.853C425.631 110.814 425.433 111.81 424.89 112.627C424.347 113.444 423.504 114.016 422.541 114.22L392.433 120.77C391.075 121.068 389.689 121.22 388.299 121.222C382.368 121.222 377.43 118.35 376.274 113.806Z" fill="#29292B"/>
<path d="M381.51 83.2121C397.87 83.2121 411.132 70.0245 411.132 53.7568C411.132 37.4891 397.87 24.3015 381.51 24.3015C365.151 24.3015 351.889 37.4891 351.889 53.7568C351.889 70.0245 365.151 83.2121 381.51 83.2121Z" fill="#EE383C"/>
<path d="M406.507 64.389C408.428 64.336 410.817 64.2697 412.658 62.9324C413.206 62.5179 413.657 61.9892 413.978 61.3833C414.299 60.7774 414.483 60.1091 414.517 59.4251C414.55 58.939 414.47 58.4518 414.283 58.0016C414.095 57.5514 413.805 57.1505 413.436 56.83C412.475 56.0221 411.071 55.8325 409.558 56.2747L411.125 44.8821L409.974 44.7253L408.131 58.1188L409.092 57.6803C410.207 57.1721 411.736 56.9135 412.687 57.7122C412.92 57.921 413.102 58.1805 413.218 58.4705C413.334 58.7606 413.381 59.0733 413.356 59.3845C413.328 59.8936 413.19 60.3906 412.951 60.8419C412.712 61.2931 412.379 61.688 411.973 61.9996C410.54 63.0402 408.636 63.1744 406.475 63.2345L406.507 64.389Z" fill="#29292B"/>
<path d="M403.325 45.8646H397.069V47.0197H403.325V45.8646Z" fill="#29292B"/>
<path d="M379.438 24.2143C379.22 20.7324 378.252 17.3378 376.6 14.2602C374.948 11.1825 372.65 8.49388 369.862 6.37619C366.982 4.25505 363.657 2.80678 360.136 2.13904C356.615 1.4713 352.988 1.60127 349.525 2.51928C346.084 3.40846 342.89 5.06287 340.186 7.35778C337.481 9.6527 335.336 12.5282 333.911 15.7676C332.477 18.9829 331.762 22.4691 331.814 25.9859C331.972 29.8104 332.928 33.5604 334.62 36.9983C336.367 40.7825 338.57 44.3328 340.483 48.032C342.367 51.6799 343.993 55.4541 345.348 59.3273C348.106 67.2192 349.733 75.4577 350.182 83.8005C350.893 96.9519 349.628 116.152 334.697 121.199C330.901 122.482 326.805 122.721 322.824 122.711C318.632 122.762 314.45 122.275 310.383 121.262C303.334 119.39 296.643 114.996 293.64 108.168C292.948 106.591 292.484 104.925 292.262 103.219C292.199 102.751 292.707 102.357 293.133 102.352C293.362 102.358 293.581 102.451 293.743 102.612C293.905 102.773 293.999 102.991 294.004 103.219C294.976 110.495 301.074 116.074 307.694 118.583C311.562 119.977 315.626 120.759 319.737 120.899C323.83 121.105 328.079 121.073 332.087 120.137C335.654 119.369 338.899 117.535 341.388 114.879C343.606 112.34 345.26 109.364 346.243 106.145C348.6 98.9923 348.847 91.1277 348.433 83.6723C347.964 75.3569 346.302 67.1508 343.497 59.3033C342.08 55.3411 340.371 51.4884 338.383 47.7765C336.442 44.1458 334.286 40.6178 332.651 36.8334C331.054 33.355 330.176 29.5933 330.069 25.7712C330.056 22.2414 330.763 18.7456 332.146 15.4947C333.506 12.2309 335.544 9.29007 338.128 6.86521C340.712 4.44035 343.782 2.58635 347.137 1.42495C350.551 0.243379 354.175 -0.21542 357.778 0.0780081C361.38 0.371436 364.881 1.41061 368.056 3.12882C371.076 4.8551 373.722 7.15947 375.841 9.90872C377.96 12.658 379.51 15.7976 380.401 19.1461C380.834 20.8046 381.096 22.5029 381.181 24.2143C381.238 25.3288 379.495 25.3257 379.438 24.2143H379.438Z" fill="#29292B"/>
<path d="M373.645 24.8227C373.17 21.609 371.551 18.6717 369.082 16.5447C366.458 14.3575 363.094 13.2473 359.675 13.44C358.555 13.4957 358.558 11.7629 359.675 11.7073C363.391 11.5407 367.038 12.738 369.924 15.0713C372.809 17.4046 374.732 20.7112 375.325 24.3621C375.493 25.4529 373.814 25.9231 373.645 24.8227Z" fill="#29292B"/>
<path d="M369.984 24.9229C369.719 24.1229 369.784 23.2508 370.165 22.4983C370.546 21.7459 371.212 21.1749 372.016 20.9107L380.289 18.1944C381.094 17.9303 381.971 17.9947 382.727 18.3736C383.484 18.7525 384.058 19.4148 384.324 20.2147C384.59 21.0147 384.525 21.8868 384.144 22.6392C383.763 23.3916 383.097 23.9627 382.292 24.2269L374.019 26.9432C373.621 27.0741 373.201 27.1257 372.782 27.0951C372.364 27.0644 371.956 26.952 371.581 26.7644C371.206 26.5768 370.872 26.3176 370.598 26.0016C370.324 25.6856 370.116 25.3191 369.984 24.9229V24.9229Z" fill="#29292B"/>
<path d="M434.589 64.9462C434.055 65.0585 433.563 65.3182 433.17 65.6957C432.777 66.0732 432.499 66.5531 432.368 67.0805C432.237 67.6078 432.257 68.1613 432.428 68.6774C432.599 69.1935 432.912 69.6514 433.332 69.9986L446.117 80.5613C446.304 80.7185 446.458 80.9103 446.571 81.1261C446.677 81.3441 446.736 81.5813 446.746 81.823L447.544 101.194C447.558 101.828 447.786 102.439 448.192 102.928C448.597 103.417 449.156 103.757 449.779 103.892L449.802 103.897C450.417 104.046 451.065 103.987 451.643 103.728C452.22 103.469 452.694 103.025 452.988 102.468L457.6 94.105C457.755 93.8297 457.982 93.6014 458.257 93.4445C458.532 93.2876 458.845 93.2081 459.162 93.2144C459.395 93.2156 459.625 93.2648 459.839 93.3589C460.052 93.453 460.243 93.59 460.401 93.7612L482.53 117.242C482.85 117.583 483.248 117.841 483.69 117.995C484.132 118.149 484.605 118.193 485.069 118.124C485.531 118.056 485.969 117.878 486.348 117.606C486.726 117.334 487.033 116.975 487.243 116.56L519.691 52.0061C519.937 51.5201 520.039 50.9751 519.987 50.4338C519.935 49.8925 519.73 49.3768 519.396 48.9461C519.062 48.5154 518.613 48.1872 518.099 47.9991C517.586 47.8111 517.03 47.7709 516.495 47.8832L515.444 48.1015L434.589 64.9462L434.589 64.9462ZM434.071 69.1114C433.819 68.9024 433.632 68.6272 433.53 68.3172C433.428 68.0072 433.416 67.6749 433.496 67.3585C433.575 67.042 433.742 66.7542 433.978 66.5279C434.214 66.3015 434.51 66.1459 434.831 66.0788L515.66 49.2402L516.736 49.0157C517.057 48.95 517.389 48.9752 517.696 49.0884C518.003 49.2015 518.272 49.3981 518.472 49.6557C518.671 49.9133 518.795 50.2216 518.827 50.5454C518.859 50.8692 518.8 51.1956 518.654 51.4873L486.206 116.042C486.08 116.291 485.896 116.506 485.668 116.669C485.441 116.833 485.177 116.939 484.9 116.979C484.622 117.019 484.339 116.992 484.074 116.9C483.809 116.808 483.571 116.654 483.378 116.45L461.249 92.9699C461.033 92.735 460.777 92.539 460.494 92.3905L516.724 51.8266C516.946 51.6704 517.105 51.4423 517.175 51.1817C517.245 50.9211 517.221 50.6444 517.107 50.3994C516.994 50.1545 516.798 49.9568 516.553 49.8404C516.308 49.724 516.03 49.6963 515.767 49.762C515.703 49.7773 515.64 49.7987 515.58 49.8262L447.305 80.1311C447.173 79.9625 447.022 79.8092 446.856 79.6741L434.071 69.1114V69.1114Z" fill="#CCCCCC"/>
<path d="M434.589 64.9462C434.055 65.0585 433.563 65.3182 433.17 65.6957C432.777 66.0732 432.499 66.5531 432.368 67.0805C432.237 67.6078 432.257 68.1613 432.428 68.6774C432.599 69.1935 432.912 69.6514 433.332 69.9986L446.117 80.5613C446.304 80.7185 446.458 80.9103 446.571 81.1261C446.677 81.3441 446.736 81.5813 446.746 81.823L447.544 101.194C447.558 101.828 447.786 102.439 448.192 102.928C448.597 103.417 449.156 103.757 449.779 103.892L449.802 103.897C450.417 104.046 451.065 103.987 451.643 103.728C452.22 103.469 452.694 103.025 452.988 102.468L457.6 94.105C457.755 93.8297 457.982 93.6014 458.257 93.4445C458.532 93.2876 458.845 93.2081 459.162 93.2144C459.395 93.2156 459.625 93.2648 459.839 93.3589C460.052 93.453 460.243 93.59 460.401 93.7612L482.53 117.242C482.85 117.583 483.248 117.841 483.69 117.995C484.132 118.149 484.605 118.193 485.069 118.124C485.531 118.056 485.969 117.878 486.348 117.606C486.726 117.334 487.033 116.975 487.243 116.56L519.691 52.0061C519.937 51.5201 520.039 50.9751 519.987 50.4338C519.935 49.8925 519.73 49.3768 519.396 48.9461C519.062 48.5154 518.613 48.1872 518.099 47.9991C517.586 47.8111 517.03 47.7709 516.495 47.8832L515.444 48.1015L434.589 64.9462L434.589 64.9462ZM434.071 69.1114C433.819 68.9024 433.632 68.6272 433.53 68.3172C433.428 68.0072 433.416 67.6749 433.496 67.3585C433.575 67.042 433.742 66.7542 433.978 66.5279C434.214 66.3015 434.51 66.1459 434.831 66.0788L515.66 49.2402L516.736 49.0157C517.057 48.95 517.389 48.9752 517.696 49.0884C518.003 49.2015 518.272 49.3981 518.472 49.6557C518.671 49.9133 518.795 50.2216 518.827 50.5454C518.859 50.8692 518.8 51.1956 518.654 51.4873L486.206 116.042C486.08 116.291 485.896 116.506 485.668 116.669C485.441 116.833 485.177 116.939 484.899 116.979C484.622 117.019 484.339 116.992 484.074 116.9C483.809 116.808 483.571 116.654 483.378 116.45L461.249 92.9699C461.033 92.735 460.777 92.539 460.494 92.3905C460.089 92.1743 459.636 92.0597 459.176 92.0568C459.112 92.054 459.045 92.0568 458.979 92.0595L458.974 92.0583C458.48 92.0837 458.002 92.234 457.584 92.495C457.165 92.7559 456.821 93.1188 456.583 93.5492L451.971 101.917C451.794 102.253 451.509 102.52 451.162 102.675C450.814 102.83 450.424 102.863 450.054 102.769L450.043 102.767C449.668 102.688 449.331 102.485 449.088 102.191C448.844 101.897 448.709 101.53 448.703 101.149L447.906 81.7773C447.899 81.5726 447.87 81.3693 447.818 81.1711L447.819 81.1654C447.77 80.9752 447.7 80.7907 447.612 80.6151C447.527 80.4434 447.424 80.2811 447.305 80.1311C447.173 79.9625 447.022 79.8092 446.856 79.6741L434.071 69.1114V69.1114Z" fill="#29292B"/>
<path d="M447.305 80.1311L515.58 49.8262C515.64 49.7988 515.703 49.7773 515.767 49.762C516.03 49.6963 516.308 49.724 516.553 49.8404C516.797 49.9568 516.993 50.1545 517.107 50.3995C517.221 50.6444 517.245 50.9211 517.175 51.1817C517.105 51.4423 516.945 51.6704 516.724 51.8266L460.494 92.3905L459.502 93.1077L458.822 92.1722L458.974 92.0583L458.979 92.0596L516.039 50.8898L447.819 81.1655L447.818 81.1711L447.52 81.2994L447.047 80.2445L447.305 80.1311Z" fill="#29292B"/>
<path d="M362.004 172.089C361.157 172.089 360.345 172.424 359.746 173.02C359.147 173.615 358.81 174.423 358.809 175.265V186.816C358.81 187.658 359.147 188.466 359.746 189.061C360.345 189.657 361.157 189.992 362.004 189.993H399.176C400.023 189.992 400.835 189.657 401.434 189.061C402.033 188.466 402.37 187.658 402.371 186.816V175.265C402.37 174.423 402.033 173.615 401.434 173.02C400.835 172.424 400.023 172.089 399.176 172.089H362.004Z" fill="#29292B"/>
<path d="M357.621 113.495C355.846 118.611 355.515 124.112 356.664 129.401C359.618 143.802 358.518 160.827 355.615 179.019C355.615 180.933 356.955 182.484 358.609 182.484H404.023C405.676 182.484 407.017 180.933 407.017 179.019V125.018C407.017 109.06 396.108 96.0013 382.463 95.3082C382.084 95.2851 381.7 95.2736 381.316 95.2736C370.671 95.2736 361.518 102.799 357.621 113.495Z" fill="#29292B"/>
<path d="M372.084 183.582V116.797C372.084 114.671 372.934 112.632 374.446 111.129C375.958 109.625 378.008 108.781 380.146 108.781C382.284 108.781 384.335 109.625 385.847 111.129C387.359 112.632 388.208 114.671 388.208 116.797V183.582C388.207 184.578 387.809 185.532 387.101 186.236C386.393 186.939 385.433 187.335 384.433 187.336H375.86C374.859 187.335 373.899 186.939 373.191 186.236C372.484 185.532 372.086 184.578 372.084 183.582Z" fill="#EE383C"/>
<path d="M385.874 135.747L373.689 135.214C372.689 135.169 371.748 134.732 371.072 133.998C370.396 133.263 370.04 132.293 370.083 131.298L370.939 111.969C370.993 110.679 371.303 109.412 371.85 108.241C372.397 107.07 373.171 106.018 374.128 105.144C375.085 104.271 376.205 103.595 377.425 103.153C378.646 102.711 379.941 102.513 381.239 102.569C382.536 102.626 383.809 102.937 384.986 103.484C386.162 104.03 387.218 104.803 388.094 105.756C388.97 106.709 389.648 107.825 390.09 109.039C390.531 110.254 390.728 111.543 390.668 112.833L389.812 132.162C389.769 133.127 389.354 134.039 388.652 134.708C387.95 135.376 387.016 135.75 386.045 135.751C385.988 135.751 385.931 135.75 385.874 135.747Z" fill="#29292B"/>
<path d="M407.017 148.12C408.461 148.12 409.631 144.371 409.631 139.745C409.631 135.12 408.461 131.371 407.017 131.371C405.574 131.371 404.403 135.12 404.403 139.745C404.403 144.371 405.574 148.12 407.017 148.12Z" fill="#29292B"/>
<path d="M263.779 243.994C271.798 243.994 278.299 237.53 278.299 229.555C278.299 221.581 271.798 215.116 263.779 215.116C255.759 215.116 249.258 221.581 249.258 229.555C249.258 237.53 255.759 243.994 263.779 243.994Z" fill="#CCCCCC"/>
<path d="M407.374 243.994H295.857C294.624 243.994 293.442 243.507 292.571 242.641C291.7 241.774 291.21 240.599 291.21 239.374C291.21 238.148 291.7 236.973 292.571 236.107C293.442 235.24 294.624 234.753 295.857 234.753H407.374C408.606 234.753 409.788 235.24 410.659 236.107C411.531 236.973 412.02 238.148 412.02 239.374C412.02 240.599 411.531 241.774 410.659 242.641C409.788 243.507 408.606 243.994 407.374 243.994Z" fill="#CCCCCC"/>
<path d="M377.171 224.357H295.857C294.624 224.357 293.442 223.87 292.571 223.004C291.7 222.137 291.21 220.962 291.21 219.737C291.21 218.511 291.7 217.336 292.571 216.47C293.442 215.603 294.624 215.116 295.857 215.116H377.171C378.404 215.116 379.585 215.603 380.457 216.47C381.328 217.336 381.818 218.511 381.818 219.737C381.818 220.962 381.328 222.137 380.457 223.004C379.585 223.87 378.404 224.357 377.171 224.357Z" fill="#CCCCCC"/>
<path d="M263.779 298.862C271.798 298.862 278.299 292.397 278.299 284.423C278.299 276.449 271.798 269.984 263.779 269.984C255.759 269.984 249.258 276.449 249.258 284.423C249.258 292.397 255.759 298.862 263.779 298.862Z" fill="#CCCCCC"/>
<path d="M407.374 298.862H295.857C294.624 298.862 293.442 298.375 292.571 297.509C291.7 296.642 291.21 295.467 291.21 294.242C291.21 293.016 291.7 291.841 292.571 290.974C293.442 290.108 294.624 289.621 295.857 289.621H407.374C408.606 289.621 409.788 290.108 410.659 290.974C411.531 291.841 412.02 293.016 412.02 294.242C412.02 295.467 411.531 296.642 410.659 297.509C409.788 298.375 408.606 298.862 407.374 298.862Z" fill="#CCCCCC"/>
<path d="M377.171 279.225H295.857C294.624 279.225 293.442 278.738 292.571 277.872C291.7 277.005 291.21 275.83 291.21 274.605C291.21 273.379 291.7 272.204 292.571 271.337C293.442 270.471 294.624 269.984 295.857 269.984H377.171C378.404 269.984 379.585 270.471 380.457 271.337C381.328 272.204 381.818 273.379 381.818 274.605C381.818 275.83 381.328 277.005 380.457 277.872C379.585 278.738 378.404 279.225 377.171 279.225Z" fill="#CCCCCC"/>
<path d="M263.779 354.307C271.798 354.307 278.299 347.843 278.299 339.868C278.299 331.894 271.798 325.43 263.779 325.43C255.759 325.43 249.258 331.894 249.258 339.868C249.258 347.843 255.759 354.307 263.779 354.307Z" fill="#CCCCCC"/>
<path d="M407.374 354.307H295.857C294.624 354.307 293.442 353.821 292.571 352.954C291.7 352.088 291.21 350.912 291.21 349.687C291.21 348.461 291.7 347.286 292.571 346.42C293.442 345.553 294.624 345.066 295.857 345.066H407.374C408.606 345.066 409.788 345.553 410.659 346.42C411.531 347.286 412.02 348.461 412.02 349.687C412.02 350.912 411.531 352.088 410.659 352.954C409.788 353.821 408.606 354.307 407.374 354.307Z" fill="#CCCCCC"/>
<path d="M377.171 334.67H295.857C294.624 334.67 293.442 334.184 292.571 333.317C291.7 332.451 291.21 331.275 291.21 330.05C291.21 328.825 291.7 327.649 292.571 326.783C293.442 325.916 294.624 325.43 295.857 325.43H377.171C378.404 325.43 379.585 325.916 380.457 326.783C381.328 327.649 381.818 328.825 381.818 330.05C381.818 331.275 381.328 332.451 380.457 333.317C379.585 334.184 378.404 334.67 377.171 334.67Z" fill="#CCCCCC"/>
<path d="M446.222 380.297H215.056C212.438 380.294 209.929 379.259 208.078 377.418C206.227 375.578 205.185 373.082 205.182 370.479V198.945C205.185 196.342 206.227 193.846 208.078 192.005C209.929 190.165 212.438 189.129 215.056 189.126H446.222C448.84 189.129 451.35 190.165 453.201 192.005C455.052 193.846 456.093 196.342 456.096 198.945V370.479C456.093 373.082 455.052 375.578 453.201 377.418C451.35 379.259 448.84 380.294 446.222 380.297ZM215.056 190.282C212.746 190.284 210.532 191.198 208.899 192.822C207.265 194.446 206.347 196.648 206.344 198.945V370.479C206.347 372.776 207.265 374.978 208.899 376.602C210.532 378.226 212.746 379.14 215.056 379.142H446.222C448.532 379.14 450.747 378.226 452.38 376.602C454.013 374.978 454.932 372.776 454.935 370.479V198.945C454.932 196.648 454.013 194.446 452.38 192.822C450.747 191.198 448.532 190.284 446.222 190.282H215.056Z" fill="#29292B"/>
<path d="M209.248 224.357C227.212 224.357 241.774 209.877 241.774 192.014C241.774 174.152 227.212 159.671 209.248 159.671C191.285 159.671 176.722 174.152 176.722 192.014C176.722 209.877 191.285 224.357 209.248 224.357Z" fill="#EE383C"/>
<path d="M206.024 204.352C205.292 204.354 204.58 204.118 203.994 203.682L203.958 203.655L196.314 197.835C195.96 197.566 195.663 197.229 195.44 196.845C195.217 196.461 195.072 196.038 195.013 195.598C194.954 195.158 194.984 194.712 195.099 194.283C195.214 193.855 195.413 193.453 195.684 193.101C195.955 192.749 196.293 192.453 196.68 192.231C197.066 192.009 197.492 191.865 197.934 191.807C198.376 191.749 198.825 191.778 199.256 191.892C199.687 192.007 200.091 192.205 200.445 192.474L205.396 196.249L217.096 181.076C217.368 180.724 217.706 180.429 218.092 180.207C218.478 179.985 218.905 179.841 219.347 179.783C219.789 179.725 220.238 179.754 220.669 179.869C221.1 179.984 221.504 180.182 221.858 180.451L221.785 180.55L221.859 180.453C222.573 180.998 223.04 181.803 223.158 182.691C223.276 183.578 223.035 184.476 222.488 185.187L208.726 203.034C208.407 203.446 207.998 203.779 207.53 204.007C207.061 204.236 206.546 204.354 206.024 204.352Z" fill="white"/>
<path d="M208.998 385.401C208.427 385.402 207.861 385.281 207.34 385.047H207.34L146.061 357.711C145.06 357.266 144.156 356.628 143.403 355.835C142.649 355.041 142.06 354.108 141.67 353.089C141.279 352.069 141.094 350.983 141.126 349.892C141.157 348.802 141.405 347.728 141.854 346.732C142.303 345.737 142.945 344.839 143.743 344.09C144.541 343.342 145.48 342.757 146.506 342.369C147.531 341.981 148.624 341.798 149.721 341.83C150.818 341.863 151.897 342.109 152.898 342.557L214.177 369.892C214.664 370.109 215.104 370.42 215.47 370.806C215.837 371.192 216.123 371.646 216.313 372.143C216.503 372.639 216.593 373.167 216.577 373.698C216.562 374.229 216.441 374.751 216.223 375.235L212.714 383.013C212.391 383.725 211.869 384.329 211.21 384.752C210.551 385.176 209.783 385.401 208.998 385.401Z" fill="#EE383C"/>
<path d="M221.873 460H0.580819C0.426776 460 0.279042 459.939 0.170118 459.831C0.0611928 459.723 0 459.576 0 459.422C0 459.269 0.0611928 459.122 0.170118 459.014C0.279042 458.906 0.426776 458.845 0.580819 458.845H221.873C222.027 458.845 222.175 458.906 222.284 459.014C222.393 459.122 222.454 459.269 222.454 459.422C222.454 459.576 222.393 459.723 222.284 459.831C222.175 459.939 222.027 460 221.873 460Z" fill="#29292B"/>
</g>
<defs>
<clipPath id="clip0">
<rect width="520" height="460" fill="white"/>
</clipPath>
</defs>
</svg>
